<svg width="119" height="118" viewBox="0 0 119 118" fill="none" xmlns="http://www.w3.org/2000/svg">
<path d="M99.8125 35.0486H62.9375C35.4883 35.0486 13.1562 57.3807 13.1562 84.8299V99.5799C13.1562 102.63 15.6374 105.111 18.6875 105.111H55.5625C83.0117 105.111 105.344 82.7791 105.344 55.3299V40.5799C105.344 37.5298 102.863 35.0486 99.8125 35.0486ZM101.656 55.3299C101.656 80.7463 80.9789 101.424 55.5625 101.424H18.6875C17.6702 101.424 16.8438 100.597 16.8438 99.5799V84.8299C16.8438 59.4135 37.5211 38.7361 62.9375 38.7361H99.8125C100.83 38.7361 101.656 39.5635 101.656 40.5799V55.3299Z" fill="#DB323E"/>
<path d="M96.125 42.4236H62.9375C39.5539 42.4236 20.5312 61.4463 20.5312 84.8299V95.8924C20.5312 96.9115 21.3559 97.7361 22.375 97.7361H55.5625C78.9461 97.7361 97.9688 78.7135 97.9688 55.3299V44.2674C97.9688 43.2492 97.1441 42.4236 96.125 42.4236ZM94.2812 55.3299C94.2812 76.6789 76.9115 94.0486 55.5625 94.0486H24.2188V84.8299C24.2188 63.4809 41.5885 46.1111 62.9375 46.1111H94.2812V55.3299Z" fill="#DB323E"/>
<path d="M53.7188 66.3924C53.7188 75.5427 61.1622 82.9861 70.3125 82.9861C79.4628 82.9861 86.9062 75.5427 86.9062 66.3924C86.9062 57.243 79.4628 49.7986 70.3125 49.7986C61.1622 49.7986 53.7188 57.243 53.7188 66.3924ZM70.3125 53.4861C77.4282 53.4861 83.2188 59.2758 83.2188 66.3924C83.2188 73.5081 77.4282 79.2986 70.3125 79.2986C63.1968 79.2986 57.4062 73.5081 57.4062 66.3924C57.4062 59.2758 63.1968 53.4861 70.3125 53.4861Z" fill="#DB323E"/>
<path d="M70.3125 75.6111C75.3954 75.6111 79.5312 71.4753 79.5312 66.3924C79.5312 61.3095 75.3954 57.1736 70.3125 57.1736C65.2296 57.1736 61.0938 61.3095 61.0938 66.3924C61.0938 71.4753 65.2296 75.6111 70.3125 75.6111ZM70.3125 60.8611C73.3626 60.8611 75.8438 63.3423 75.8438 66.3924C75.8438 69.4425 73.3626 71.9236 70.3125 71.9236C67.2624 71.9236 64.7812 69.4425 64.7812 66.3924C64.7812 63.3423 67.2624 60.8611 70.3125 60.8611Z" fill="#DB323E"/>
<path d="M39.8906 66.3924C33.2827 66.3924 27.9062 71.7688 27.9062 78.3768C27.9062 84.9847 33.2827 90.3611 39.8906 90.3611C46.4986 90.3611 51.875 84.9847 51.875 78.3768C51.875 71.7688 46.4986 66.3924 39.8906 66.3924ZM39.8906 86.6736C35.3155 86.6736 31.5938 82.9519 31.5938 78.3768C31.5938 73.8016 35.3155 70.0799 39.8906 70.0799C44.4658 70.0799 48.1875 73.8016 48.1875 78.3768C48.1875 82.9519 44.4658 86.6736 39.8906 86.6736Z" fill="#DB323E"/>
<path d="M39.8906 82.9861C42.4363 82.9861 44.5 80.9225 44.5 78.3768C44.5 75.8311 42.4363 73.7674 39.8906 73.7674C37.3449 73.7674 35.2812 75.8311 35.2812 78.3768C35.2812 80.9225 37.3449 82.9861 39.8906 82.9861Z" fill="#DB323E"/>
<path d="M59.25 25.8794C60.2691 25.8794 61.0938 25.0539 61.0938 24.0357V16.6111C61.0938 15.5929 60.2691 14.7674 59.25 14.7674C58.2309 14.7674 57.4062 15.5929 57.4062 16.6111V24.0357C57.4062 25.0539 58.2309 25.8794 59.25 25.8794Z" fill="#DB323E"/>
<path d="M46.9708 25.8956C47.5622 28.1026 51.168 27.321 50.5323 24.9414L47.6694 14.2552C47.4083 13.2721 46.3964 12.6896 45.4115 12.9516C44.4285 13.2145 43.8451 14.2255 44.108 15.2095C44.108 15.2095 46.9607 25.858 46.9708 25.8956Z" fill="#DB323E"/>
<path d="M69.2969 27.1063C70.1855 27.3527 71.2245 27.0365 71.5287 25.8956L74.3916 15.2094C74.6545 14.2255 74.0711 13.2145 73.088 12.9516C72.1067 12.6914 71.093 13.2721 70.8301 14.2552L67.9673 24.9413C67.67 26.0509 68.4083 26.8599 69.2969 27.1063Z" fill="#DB323E"/>
<path d="M78.9676 31.1145C79.795 31.5923 80.9629 31.3446 81.4866 30.4393L87.0178 20.8586C87.5274 19.9764 87.2249 18.8492 86.3426 18.3397C85.4604 17.8301 84.3332 18.1326 83.8237 19.0149L78.2924 28.5955C77.7829 29.4777 78.0853 30.6047 78.9676 31.1145Z" fill="#DB323E"/>
<path d="M37.0131 30.4393C38.1878 32.4737 41.4095 30.677 40.2073 28.5955L34.676 19.0149C34.1647 18.1326 33.034 17.8301 32.1571 18.3397C31.2748 18.8492 30.9723 19.9764 31.4819 20.8586C31.4819 20.8586 36.9907 30.4004 37.0131 30.4393Z" fill="#DB323E"/>
</svg>
