<svg width="119" height="118" viewBox="0 0 119 118" fill="none" xmlns="http://www.w3.org/2000/svg">
<path d="M100.312 12.9062H19.1875C16.1374 12.9062 13.6562 15.3874 13.6562 18.4375V99.5625C13.6562 102.613 16.1374 105.094 19.1875 105.094H100.312C103.363 105.094 105.844 102.613 105.844 99.5625V18.4375C105.844 15.3874 103.363 12.9062 100.312 12.9062ZM102.156 99.5625C102.156 100.58 101.33 101.406 100.312 101.406H19.1875C18.1711 101.406 17.3438 100.58 17.3438 99.5625V18.4375C17.3438 17.4211 18.1711 16.5938 19.1875 16.5938H100.312C101.33 16.5938 102.156 17.4211 102.156 18.4375V99.5625Z" fill="#DB323E"/>
<path d="M59.75 20.2812C38.4001 20.2812 21.0312 37.6501 21.0312 59C21.0312 80.3499 38.4001 97.7188 59.75 97.7188C81.0999 97.7188 98.4688 80.349 98.4688 59C98.4688 37.651 81.099 20.2812 59.75 20.2812ZM59.75 94.0312C40.4338 94.0312 24.7188 78.3162 24.7188 59C24.7188 39.6838 40.4338 23.9688 59.75 23.9688C79.0662 23.9688 94.7812 39.6838 94.7812 59C94.7812 78.3162 79.0662 94.0312 59.75 94.0312Z" fill="#DB323E"/>
<path d="M59.75 62.6875C61.7866 62.6875 63.4375 61.0366 63.4375 59C63.4375 56.9634 61.7866 55.3125 59.75 55.3125C57.7134 55.3125 56.0625 56.9634 56.0625 59C56.0625 61.0366 57.7134 62.6875 59.75 62.6875Z" fill="#DB323E"/>
<path d="M79.934 48.7162L69.2609 49.4882L70.0311 38.8394C70.2759 35.9756 69.3018 33.1173 67.3555 30.999C65.4055 28.8743 62.6345 27.6562 59.75 27.6562C56.8655 27.6562 54.0927 28.8752 52.1427 30.9999C50.1972 33.1191 49.2231 35.9765 49.4662 38.8151L50.2382 49.4882L39.5894 48.7181C36.722 48.4777 33.8682 49.4473 31.7499 51.3927C29.6252 53.3427 28.4062 56.1155 28.4062 59C28.4062 61.8845 29.6243 64.6555 31.749 66.6055C33.6539 68.3556 36.1558 69.3207 38.7053 69.3207C38.9916 69.3207 39.2788 69.3081 39.5651 69.2829L50.2382 68.5109L49.4681 79.1588C49.2232 82.0235 50.1973 84.881 52.1427 87.0002C54.0927 89.1248 56.8655 90.3438 59.75 90.3438C62.6345 90.3438 65.4055 89.1248 67.3555 87.002C69.3019 84.8828 70.276 82.0235 70.0329 79.1841C70.0329 79.1841 69.2609 68.5108 69.2609 68.5108C73.0725 68.7865 76.961 69.3189 80.7821 69.3189C83.3461 69.3189 85.847 68.3538 87.752 66.6055C89.8748 64.6555 91.0938 61.8845 91.0938 59C91.0938 56.1156 89.8748 53.3427 87.7502 51.3928C85.631 49.4482 82.7753 48.4759 79.934 48.7162ZM52.375 59C52.375 54.9335 55.6835 51.625 59.75 51.625C63.8174 51.625 67.125 54.9335 67.125 59C67.125 63.0674 63.8174 66.375 59.75 66.375C55.6835 66.375 52.375 63.0674 52.375 59ZM54.8597 33.4936C56.1318 32.1072 57.8685 31.3438 59.75 31.3438C61.6315 31.3438 63.3673 32.1072 64.6403 33.4927C65.9078 34.8728 66.5164 36.6598 66.3562 38.5486L65.5567 49.6017C63.8665 48.5535 61.8812 47.9375 59.75 47.9375C57.6192 47.9375 55.6343 48.5533 53.9442 49.6012L53.1429 38.5243C52.9827 36.6607 53.5922 34.8737 54.8597 33.4936ZM39.2743 65.608C37.4179 65.7682 35.6228 65.1578 34.2427 63.8903C32.8572 62.6173 32.0938 60.8815 32.0938 59C32.0938 57.1185 32.8572 55.3818 34.2436 54.1097C35.6237 52.8431 37.4198 52.2336 39.2986 52.3947L50.3512 53.1942C49.3033 54.8843 48.6875 56.8692 48.6875 59C48.6875 61.1312 49.3036 63.1165 50.3518 64.8067L39.2743 65.608ZM64.6403 84.5082C63.3673 85.8928 61.6315 86.6562 59.75 86.6562C57.8685 86.6562 56.1318 85.8928 54.8597 84.5064C53.5922 83.1272 52.9827 81.3393 53.1447 79.4505L53.9442 68.3988C55.6343 69.4467 57.6192 70.0625 59.75 70.0625C61.8812 70.0625 63.8665 69.4465 65.5567 68.3982L66.358 79.4739C66.5164 81.3392 65.9078 83.1272 64.6403 84.5082ZM87.4062 59C87.4062 60.8816 86.6428 62.6173 85.2582 63.8903C83.8772 65.156 82.1019 65.761 80.2005 65.6062L69.1482 64.8067C70.1965 63.1165 70.8125 61.1312 70.8125 59C70.8125 56.8692 70.1967 54.8843 69.1488 53.1942L80.2257 52.3929C82.0911 52.2282 83.8772 52.8431 85.2564 54.1097C86.6428 55.3818 87.4062 57.1185 87.4062 59Z" fill="#DB323E"/>
<path d="M92.9375 20.2812C89.8874 20.2812 87.4062 22.7624 87.4062 25.8125C87.4062 28.8626 89.8874 31.3438 92.9375 31.3438C95.9876 31.3438 98.4688 28.8626 98.4688 25.8125C98.4688 22.7624 95.9876 20.2812 92.9375 20.2812ZM92.9375 27.6562C91.9202 27.6562 91.0938 26.8289 91.0938 25.8125C91.0938 24.7961 91.9202 23.9688 92.9375 23.9688C93.9548 23.9688 94.7812 24.7961 94.7812 25.8125C94.7812 26.8289 93.9548 27.6562 92.9375 27.6562Z" fill="#DB323E"/>
<path d="M26.5625 31.3438C29.6126 31.3438 32.0938 28.8626 32.0938 25.8125C32.0938 22.7624 29.6126 20.2812 26.5625 20.2812C23.5124 20.2812 21.0312 22.7624 21.0312 25.8125C21.0312 28.8626 23.5124 31.3438 26.5625 31.3438ZM26.5625 23.9688C27.5789 23.9688 28.4062 24.7961 28.4062 25.8125C28.4062 26.8289 27.5789 27.6562 26.5625 27.6562C25.5461 27.6562 24.7188 26.8289 24.7188 25.8125C24.7188 24.7961 25.5461 23.9688 26.5625 23.9688Z" fill="#DB323E"/>
<path d="M92.9375 86.6562C89.8874 86.6562 87.4062 89.1374 87.4062 92.1875C87.4062 95.2376 89.8874 97.7188 92.9375 97.7188C95.9876 97.7188 98.4688 95.2376 98.4688 92.1875C98.4688 89.1374 95.9876 86.6562 92.9375 86.6562ZM92.9375 94.0312C91.9202 94.0312 91.0938 93.2048 91.0938 92.1875C91.0938 91.1702 91.9202 90.3438 92.9375 90.3438C93.9548 90.3438 94.7812 91.1702 94.7812 92.1875C94.7812 93.2048 93.9548 94.0312 92.9375 94.0312Z" fill="#DB323E"/>
<path d="M26.5625 86.6562C23.5124 86.6562 21.0312 89.1374 21.0312 92.1875C21.0312 95.2376 23.5124 97.7188 26.5625 97.7188C29.6126 97.7188 32.0938 95.2376 32.0938 92.1875C32.0938 89.1374 29.6126 86.6562 26.5625 86.6562ZM26.5625 94.0312C25.5461 94.0312 24.7188 93.2048 24.7188 92.1875C24.7188 91.1702 25.5461 90.3438 26.5625 90.3438C27.5789 90.3438 28.4062 91.1702 28.4062 92.1875C28.4062 93.2048 27.5789 94.0312 26.5625 94.0312Z" fill="#DB323E"/>
<path d="M80.9519 44.2878C81.5246 45.1127 82.6979 45.3216 83.5176 44.7506C84.3531 44.1699 84.5619 43.0212 83.9804 42.1848C81.9584 39.2716 79.4556 36.776 76.5424 34.7675C75.7033 34.1877 74.5564 34.3993 73.9784 35.2393C73.4004 36.0774 73.6111 37.2252 74.4501 37.8032C76.996 39.5587 79.1836 41.7399 80.9519 44.2878Z" fill="#DB323E"/>
<path d="M37.033 45.0937C37.6196 45.0918 38.1986 44.8139 38.5526 44.3004C40.3072 41.7554 42.4886 39.5677 45.0363 37.8005C45.8736 37.2198 46.0807 36.0711 45.5009 35.2347C44.9193 34.3966 43.7715 34.1877 42.9351 34.7702C40.0202 36.7921 37.5247 39.2947 35.5172 42.2078C34.692 43.4052 35.583 45.0985 37.033 45.0937Z" fill="#DB323E"/>
<path d="M38.5505 73.7122C37.9689 72.8767 36.8201 72.6661 35.9838 73.2494C35.1474 73.8292 34.9404 74.9779 35.5202 75.8152C37.543 78.7302 40.0456 81.2256 42.957 83.2332C43.7494 83.7796 44.9395 83.607 45.5222 82.7617C46.1001 81.9244 45.8895 80.7757 45.0513 80.1977C42.5063 78.4422 40.3186 76.2599 38.5505 73.7122Z" fill="#DB323E"/>
<path d="M80.9483 73.6996C79.1928 76.2437 77.0105 78.4314 74.4627 80.2013C73.6255 80.7811 73.4184 81.9298 74 82.7671C74.5734 83.5941 75.7434 83.8027 76.5658 83.2298C79.4791 81.2078 81.9746 78.7051 83.984 75.7918C84.562 74.9546 84.3513 73.8058 83.5122 73.2278C82.675 72.6499 81.5262 72.8623 80.9483 73.6996Z" fill="#DB323E"/>
</svg>
