<svg width="119" height="118" viewBox="0 0 119 118" fill="none" xmlns="http://www.w3.org/2000/svg">
<path d="M116.882 11.3426L107.404 1.86204C106.814 1.27172 106.114 0.803435 105.343 0.48394C104.572 0.164445 103.746 0 102.911 0C102.077 0 101.25 0.164445 100.479 0.48394C99.7082 0.803435 99.0077 1.27172 98.4177 1.86204L90.9011 9.3861L88.689 7.17382C87.4963 5.98387 85.8803 5.3156 84.1956 5.3156C82.5108 5.3156 80.8949 5.98387 79.7022 7.17382L68.2752 18.6155C67.0836 19.8074 66.4142 21.4238 66.4142 23.1092C66.4142 24.7946 67.0836 26.411 68.2752 27.6029L71.9621 31.29L66.2359 37.0189L62.549 33.3318C61.9589 32.7416 61.2584 32.2735 60.4874 31.9542C59.7164 31.6348 58.8901 31.4704 58.0556 31.4704C57.2211 31.4704 56.3948 31.6348 55.6238 31.9542C54.8528 32.2735 54.1523 32.7416 53.5622 33.3318C52.9721 33.9219 52.5041 34.6225 52.1847 35.3935C51.8654 36.1645 51.701 36.9909 51.701 37.8255C51.701 38.66 51.8654 39.4864 52.1847 40.2574C52.5041 41.0285 52.9721 41.729 53.5622 42.3192L57.2491 46.0063L53.1475 50.0783L49.4606 46.3912C48.2689 45.1993 46.6525 44.5298 44.9672 44.5298C43.2818 44.5298 41.6655 45.1993 40.4738 46.3912C39.2821 47.583 38.6126 49.1994 38.6126 50.8848C38.6126 51.7194 38.777 52.5458 39.0963 53.3168C39.4157 54.0879 39.8837 54.7884 40.4738 55.3786L44.1607 59.0657L40.0752 63.1446L36.3883 59.4574C35.1966 58.2656 33.5803 57.5961 31.8949 57.5961C30.2096 57.5961 28.5932 58.2656 27.4015 59.4574C26.2098 60.6493 25.5403 62.2657 25.5403 63.9511C25.5403 65.6366 26.2098 67.253 27.4015 68.4448L31.0884 72.132L20.9011 82.3269C20.1567 82.2329 19.4071 82.1851 18.6567 82.1841C15.1151 82.1841 11.653 83.2343 8.70828 85.2021C5.76354 87.1698 3.46839 89.9667 2.11307 93.2389C0.757759 96.5112 0.403146 100.112 1.09408 103.586C1.78501 107.06 3.49046 110.25 5.99476 112.755C8.49906 115.259 11.6897 116.965 15.1633 117.656C18.6368 118.347 22.2373 117.992 25.5093 116.637C28.7813 115.281 31.578 112.986 33.5456 110.041C35.5132 107.096 36.5634 103.634 36.5634 100.092C36.5623 99.3416 36.5146 98.592 36.4206 97.8475L46.6148 87.6548L50.3016 91.342C51.4935 92.5336 53.1097 93.2031 54.795 93.2031C56.4803 93.2031 58.0966 92.5336 59.2884 91.342C60.48 90.1501 61.1494 88.5337 61.1494 86.8483C61.1494 85.1629 60.48 83.5465 59.2884 82.3546L55.6015 78.6674L59.694 74.5747L63.3808 78.2619C64.5729 79.4529 66.1891 80.122 67.8742 80.122C69.5593 80.122 71.1755 79.4529 72.3676 78.2619C73.5575 77.0691 74.2257 75.453 74.2257 73.7682C74.2257 72.0833 73.5575 70.4672 72.3676 69.2745L68.6807 65.5873L72.7732 61.4946L76.46 65.1817C77.6518 66.3734 79.2681 67.0428 80.9534 67.0428C82.6387 67.0428 84.255 66.3734 85.4468 65.1817C86.0371 64.5917 86.5053 63.8912 86.8248 63.1201C87.1443 62.3491 87.3087 61.5226 87.3087 60.688C87.3087 59.8534 87.1443 59.027 86.8248 58.2559C86.5053 57.4849 86.0371 56.7843 85.4468 56.1943L81.7599 52.5072L87.4884 46.7806L91.1753 50.4677C91.7651 51.0583 92.4656 51.5269 93.2366 51.8465C94.0076 52.1662 94.834 52.3307 95.6687 52.3307C96.5033 52.3307 97.3298 52.1662 98.1008 51.8465C98.8718 51.5269 99.5722 51.0583 100.162 50.4677L111.603 39.0284C112.193 38.4384 112.661 37.7378 112.981 36.9668C113.3 36.1958 113.465 35.3693 113.465 34.5347C113.465 33.7001 113.3 32.8736 112.981 32.1026C112.661 31.3315 112.193 30.631 111.603 30.041L109.395 27.8333L116.917 20.3093C118.097 19.1137 118.756 17.4991 118.75 15.8188C118.743 14.1384 118.072 12.529 116.882 11.3426ZM28.8717 110.31C26.5078 112.673 23.3977 114.144 20.0712 114.471C16.7448 114.799 13.4077 113.962 10.6287 112.105C7.84963 110.247 5.80054 107.484 4.83052 104.285C3.86051 101.086 4.02959 97.6496 5.30895 94.5614C6.58831 91.4732 8.8988 88.9241 11.8467 87.3485C14.7947 85.7729 18.1977 85.2682 21.476 85.9205C24.7543 86.5728 27.705 88.3417 29.8254 90.9258C31.9458 93.5098 33.1047 96.7492 33.1047 100.092C33.1026 103.924 31.5802 107.599 28.8717 110.31ZM35.4666 93.9091C34.5671 91.4749 33.1513 89.2642 31.3164 87.4291C29.4815 85.5941 27.271 84.1782 24.8368 83.2787L33.5356 74.5793L44.1653 85.2098L35.4666 93.9091ZM56.8251 88.8923C56.2811 89.4334 55.545 89.7371 54.7777 89.7371C54.0105 89.7371 53.2744 89.4334 52.7304 88.8923L29.851 66.0113C29.3341 65.4637 29.051 64.7362 29.0617 63.9832C29.0725 63.2302 29.3762 62.5111 29.9085 61.9784C30.4408 61.4458 31.1598 61.1416 31.9127 61.1304C32.6656 61.1193 33.3933 61.402 33.9411 61.9186L56.8274 84.8065C57.3668 85.3496 57.6695 86.084 57.6695 86.8494C57.6695 87.6149 57.3668 88.3493 56.8274 88.8923H56.8251ZM53.1382 76.2178L42.5085 65.5873L46.6148 61.5061L57.2399 72.132L53.1382 76.2178ZM69.902 75.8191C69.359 76.3612 68.623 76.6656 67.8558 76.6656C67.0885 76.6656 66.3526 76.3612 65.8096 75.8191L42.9279 52.9358C42.4002 52.39 42.1081 51.6587 42.1145 50.8996C42.1209 50.1404 42.4253 49.4141 42.9621 48.8773C43.4989 48.3405 44.2251 48.036 44.9842 48.0296C45.7433 48.0233 46.4746 48.3154 47.0203 48.8431L69.8997 71.7241C70.4427 72.267 70.748 73.0033 70.7485 73.7711C70.7489 74.539 70.4444 75.2756 69.902 75.8191ZM66.2151 63.1561L55.6015 52.5233L59.694 48.4306L70.3237 59.0611L66.2151 63.1561ZM83.8177 60.6973C83.8176 61.2699 83.6476 61.8297 83.3293 62.3057C83.011 62.7817 82.5586 63.1526 82.0294 63.3714C81.5003 63.5902 80.9181 63.6472 80.3566 63.535C79.7951 63.4229 79.2794 63.1466 78.8749 62.7413L56.0048 39.8695C55.4771 39.3237 55.185 38.5924 55.1914 37.8333C55.1978 37.0741 55.5022 36.3478 56.039 35.811C56.5758 35.2742 57.302 34.9697 58.0611 34.9633C58.8202 34.957 59.5515 35.2491 60.0972 35.7768L82.9766 58.6578C83.245 58.9249 83.458 59.2423 83.6035 59.5919C83.7491 59.9414 83.8242 60.3163 83.8246 60.6949L83.8177 60.6973ZM79.2966 50.0783L68.6669 39.4478L74.3931 33.7212L85.0228 44.3517L79.2966 50.0783ZM109.123 36.5926L97.6849 48.0319C97.4164 48.3009 97.0974 48.5143 96.7463 48.6598C96.3952 48.8054 96.0188 48.8803 95.6387 48.8803C95.2586 48.8803 94.8823 48.8054 94.5312 48.6598C94.1801 48.5143 93.8611 48.3009 93.5925 48.0319L70.7131 25.1509C70.1711 24.6078 69.8667 23.8719 69.8667 23.1046C69.8667 22.3372 70.1711 21.6013 70.7131 21.0582L82.1517 9.61885C82.695 9.07735 83.4308 8.7733 84.1979 8.7733C84.965 8.7733 85.7008 9.07735 86.2441 9.61885L109.123 32.4952C109.392 32.7639 109.606 33.0828 109.751 33.434C109.897 33.7851 109.972 34.1615 109.972 34.5416C109.972 34.9217 109.897 35.2981 109.751 35.6492C109.606 36.0004 109.392 36.3194 109.123 36.588V36.5926ZM114.437 17.878L106.916 25.4021L93.3436 11.8288L100.867 4.30707C101.136 4.03811 101.455 3.82474 101.806 3.67916C102.157 3.53359 102.533 3.45865 102.913 3.45865C103.293 3.45865 103.67 3.53359 104.021 3.67916C104.372 3.82474 104.691 4.03811 104.96 4.30707L114.437 13.7853C114.979 14.3284 115.284 15.0644 115.284 15.8317C115.284 16.599 114.979 17.335 114.437 17.878Z" fill="#DB323E"/>
<path d="M18.6655 91.4202C16.6615 91.4207 14.7197 92.1162 13.1709 93.388C11.6221 94.6598 10.5622 96.4294 10.1718 98.3951C9.78142 100.361 10.0847 102.401 11.0299 104.168C11.9751 105.936 13.5038 107.32 15.3555 108.087C17.2072 108.853 19.2673 108.954 21.1849 108.371C23.1024 107.789 24.7587 106.56 25.8715 104.893C26.9842 103.226 27.4847 101.225 27.2876 99.2305C27.0904 97.2361 26.2079 95.3717 24.7903 93.9551C23.9877 93.1486 23.0331 92.5092 21.9818 92.0741C20.9305 91.639 19.8033 91.4168 18.6655 91.4202ZM22.3524 103.763C21.5014 104.613 20.3821 105.142 19.185 105.259C17.988 105.377 16.7872 105.076 15.7872 104.407C14.7872 103.739 14.0497 102.745 13.7004 101.594C13.3511 100.442 13.4115 99.2059 13.8713 98.0944C14.3312 96.9829 15.162 96.0652 16.2224 95.4975C17.2828 94.9298 18.5072 94.7472 19.6871 94.9808C20.867 95.2144 21.9294 95.8498 22.6935 96.7788C23.4576 97.7078 23.8762 98.8729 23.8778 100.076C23.8774 100.761 23.7418 101.439 23.4788 102.072C23.2159 102.705 22.8307 103.279 22.3455 103.763H22.3524Z" fill="#DB323E"/>
</svg>
