<svg width="17" height="16" viewBox="0 0 17 16" fill="none" xmlns="http://www.w3.org/2000/svg">
<mask id="mask0_47_22" style="mask-type:alpha" maskUnits="userSpaceOnUse" x="0" y="0" width="17" height="16">
<rect x="0.166992" width="16" height="16" fill="#D9D9D9"/>
</mask>
<g mask="url(#mask0_47_22)">
<path d="M10.3667 11.1333L11.3 10.1999L8.83333 7.73325V4.66658H7.5V8.26659L10.3667 11.1333ZM8.16667 14.6666C7.24444 14.6666 6.37778 14.4916 5.56667 14.1416C4.75556 13.7916 4.05 13.3166 3.45 12.7166C2.85 12.1166 2.375 11.411 2.025 10.5999C1.675 9.78881 1.5 8.92214 1.5 7.99992C1.5 7.0777 1.675 6.21103 2.025 5.39992C2.375 4.58881 2.85 3.88325 3.45 3.28325C4.05 2.68325 4.75556 2.20825 5.56667 1.85825C6.37778 1.50825 7.24444 1.33325 8.16667 1.33325C9.08889 1.33325 9.95555 1.50825 10.7667 1.85825C11.5778 2.20825 12.2833 2.68325 12.8833 3.28325C13.4833 3.88325 13.9583 4.58881 14.3083 5.39992C14.6583 6.21103 14.8333 7.0777 14.8333 7.99992C14.8333 8.92214 14.6583 9.78881 14.3083 10.5999C13.9583 11.411 13.4833 12.1166 12.8833 12.7166C12.2833 13.3166 11.5778 13.7916 10.7667 14.1416C9.95555 14.4916 9.08889 14.6666 8.16667 14.6666ZM8.16667 13.3333C9.64444 13.3333 10.9028 12.8138 11.9417 11.7749C12.9806 10.736 13.5 9.4777 13.5 7.99992C13.5 6.52214 12.9806 5.26381 11.9417 4.22492C10.9028 3.18603 9.64444 2.66659 8.16667 2.66659C6.68889 2.66659 5.43056 3.18603 4.39167 4.22492C3.35278 5.26381 2.83333 6.52214 2.83333 7.99992C2.83333 9.4777 3.35278 10.736 4.39167 11.7749C5.43056 12.8138 6.68889 13.3333 8.16667 13.3333Z" fill="#222222"/>
</g>
</svg>
