<svg width="43" height="42" viewBox="0 0 43 42" fill="none" xmlns="http://www.w3.org/2000/svg">
<path d="M21.0174 12.8859C22.721 12.8873 24.3812 13.4228 25.7639 14.4169C27.1466 15.411 28.182 16.8136 28.7243 18.4269C28.7486 18.5016 28.7961 18.5666 28.8598 18.6126C28.9236 18.6587 29.0003 18.6833 29.0789 18.683H36.7719C36.8265 18.6831 36.8804 18.6713 36.93 18.6484C36.9795 18.6255 37.0234 18.5921 37.0587 18.5504C37.0939 18.5088 37.1196 18.46 37.134 18.4074C37.1484 18.3548 37.1511 18.2997 37.1419 18.2459C36.4901 14.4451 34.5141 10.9969 31.563 8.51098C28.612 6.02507 24.8761 4.66157 21.0159 4.66157C17.1557 4.66157 13.4198 6.02507 10.4688 8.51098C7.51776 10.9969 5.54168 14.4451 4.88992 18.2459C4.88074 18.2997 4.88344 18.3548 4.89782 18.4074C4.9122 18.46 4.9379 18.5088 4.97315 18.5504C5.00839 18.5921 5.05231 18.6255 5.10185 18.6484C5.15138 18.6713 5.20532 18.6831 5.2599 18.683H11.1045C11.1598 18.6823 11.2146 18.6943 11.2646 18.7179C11.3146 18.7416 11.3586 18.7763 11.3931 18.8195C11.4287 18.8613 11.4542 18.9107 11.4678 18.9638C11.4814 19.017 11.4826 19.0725 11.4714 19.1262C11.2299 20.3635 11.2299 21.6357 11.4714 22.8729C11.4826 22.9266 11.4814 22.9821 11.4678 23.0353C11.4542 23.0884 11.4287 23.1378 11.3931 23.1796C11.3586 23.2228 11.3146 23.2575 11.2646 23.2812C11.2146 23.3048 11.1598 23.3168 11.1045 23.3161H5.26144C5.20678 23.3157 5.1527 23.3274 5.10303 23.3502C5.05337 23.373 5.00933 23.4064 4.97403 23.4481C4.93873 23.4898 4.91304 23.5388 4.89877 23.5915C4.8845 23.6442 4.882 23.6994 4.89145 23.7532C5.46396 27.0861 7.05669 30.1597 9.45032 32.5508C11.844 34.942 14.9208 36.533 18.2571 37.1049C18.3109 37.1141 18.366 37.1114 18.4186 37.0971C18.4712 37.0829 18.5201 37.0573 18.5618 37.0223C18.6036 36.9873 18.6373 36.9437 18.6605 36.8944C18.6836 36.8451 18.6958 36.7913 18.6962 36.7369V30.9045C18.6963 30.8492 18.7087 30.7947 18.7323 30.7448C18.756 30.6949 18.7903 30.6507 18.833 30.6156C18.8757 30.5805 18.9255 30.5551 18.9791 30.5415C19.0327 30.5278 19.0886 30.526 19.1429 30.5364C20.3813 30.7797 21.6552 30.7797 22.8935 30.5364C22.9478 30.526 23.0037 30.5278 23.0573 30.5415C23.1109 30.5551 23.1608 30.5805 23.2034 30.6156C23.2461 30.6507 23.2805 30.6949 23.3041 30.7448C23.3278 30.7947 23.3401 30.8492 23.3402 30.9045V36.743C23.3401 36.7975 23.3519 36.8513 23.3748 36.9008C23.3978 36.9502 23.4313 36.994 23.473 37.0291C23.5147 37.0642 23.5636 37.0897 23.6163 37.1039C23.6689 37.118 23.7241 37.1205 23.7778 37.1111C25.6103 36.8003 27.3758 36.1779 28.9975 35.2707C29.0682 35.2301 29.1503 35.214 29.2311 35.2248C29.3119 35.2356 29.3868 35.2728 29.4443 35.3305L32.3274 38.1616C32.3676 38.2012 32.3983 38.2493 32.4173 38.3024C32.4362 38.3555 32.4429 38.4122 32.4368 38.4682C32.4308 38.5242 32.4121 38.5782 32.3823 38.626C32.3525 38.6738 32.3122 38.7143 32.2645 38.7444C27.8252 41.5512 22.4947 42.5958 17.3229 41.6723C12.1511 40.7488 7.5129 37.9242 4.32187 33.7549C1.13084 29.5856 -0.381711 24.3737 0.0821332 19.1459C0.545977 13.9181 2.95259 9.05328 6.82797 5.50963C10.7033 1.96598 15.7665 0.000388233 21.0203 5.75051e-08C26.2741 -0.000388118 31.3376 1.96446 35.2135 5.50754C39.0894 9.05062 41.4967 13.9151 41.9613 19.1428C42.4259 24.3706 40.9142 29.5826 37.7238 33.7524C37.6673 33.8248 37.6397 33.9154 37.6463 34.0069C37.6528 34.0984 37.693 34.1842 37.7591 34.2478L38.2749 34.7539C38.3448 34.8245 38.3841 34.9199 38.3841 35.0192C38.3841 35.1186 38.3448 35.2139 38.2749 35.2845L35.5407 38.0604C35.4702 38.1306 35.3746 38.1701 35.2751 38.1701C35.1755 38.1701 35.08 38.1306 35.0095 38.0604L26.5657 29.7681C26.4958 29.6974 26.4566 29.6021 26.4566 29.5028C26.4566 29.4034 26.4958 29.3081 26.5657 29.2374L26.8881 28.9108C26.958 28.8404 26.9972 28.7453 26.9972 28.6462C26.9972 28.5471 26.958 28.452 26.8881 28.3817L26.1727 27.6793C26.1106 27.6174 26.0285 27.5795 25.941 27.5725C25.8536 27.5655 25.7665 27.5897 25.6953 27.6409C24.6502 28.3734 23.447 28.8495 22.1833 29.0308C20.9195 29.2121 19.6309 29.0933 18.4217 28.6842C17.2125 28.2751 16.1168 27.5871 15.2234 26.676C14.33 25.765 13.6641 24.6564 13.2796 23.4403C12.8952 22.2242 12.803 20.9346 13.0105 19.6763C13.218 18.4179 13.7194 17.226 14.4741 16.1974C15.2287 15.1687 16.2154 14.3321 17.3541 13.7554C18.4928 13.1788 19.7515 12.8782 21.0282 12.8782M34.4353 30.3616C35.8163 28.3883 36.7413 26.1333 37.1434 23.7593C37.1529 23.7055 37.1504 23.6503 37.1361 23.5976C37.1218 23.5449 37.0962 23.496 37.0609 23.4543C37.0256 23.4126 36.9815 23.3791 36.9319 23.3563C36.8822 23.3335 36.8281 23.3219 36.7734 23.3222H29.082C29.003 23.3214 28.9259 23.3458 28.8618 23.3918C28.7977 23.4379 28.75 23.5033 28.7258 23.5783C28.4812 24.3073 28.1338 24.9978 27.6941 25.6288C27.6432 25.7014 27.6199 25.7898 27.6283 25.8781C27.6368 25.9663 27.6764 26.0487 27.7402 26.1104L28.4418 26.799C28.512 26.8691 28.6073 26.9085 28.7066 26.9085C28.8059 26.9085 28.9012 26.8691 28.9714 26.799L29.2938 26.4723C29.3641 26.4022 29.4593 26.3628 29.5587 26.3628C29.658 26.3628 29.7532 26.4022 29.8235 26.4723L33.8535 30.4306C33.8924 30.4688 33.9392 30.498 33.9906 30.5163C34.042 30.5346 34.0968 30.5415 34.1511 30.5365C34.2054 30.5316 34.258 30.5149 34.3052 30.4876C34.3525 30.4603 34.3932 30.423 34.4246 30.3785M23.4677 18.5695C22.9008 18.002 22.1544 17.6485 21.3557 17.5692C20.5571 17.49 19.7557 17.6899 19.0881 18.1348C18.4205 18.5798 17.928 19.2422 17.6946 20.0093C17.4613 20.7764 17.5014 21.6006 17.8083 22.3414C18.1151 23.0822 18.6697 23.6937 19.3774 24.0718C20.0851 24.4499 20.9022 24.571 21.6893 24.4146C22.4765 24.2583 23.185 23.834 23.694 23.2142C24.2031 22.5944 24.4812 21.8174 24.4809 21.0157C24.4811 20.5614 24.3917 20.1116 24.2179 19.6919C24.044 19.2722 23.7891 18.8908 23.4677 18.5695Z" fill="#DB323E"/>
</svg>
